<?xml version="1.0" encoding="UTF-8" standalone="no"?>
<!DOCTYPE svg PUBLIC "-//W3C//DTD SVG 1.1//EN" "http://www.w3.org/Graphics/SVG/1.1/DTD/svg11.dtd">
<svg width="100%" height="100%" viewBox="0 0 100 100" version="1.1" xmlns="http://www.w3.org/2000/svg" xmlns:xlink="http://www.w3.org/1999/xlink" xml:space="preserve" xmlns:serif="http://www.serif.com/" style="fill-rule:evenodd;clip-rule:evenodd;stroke-linejoin:round;stroke-miterlimit:1.41421;">
    <g transform="matrix(0.283286,0,0,0.283286,2.40793,-6.65722)">
        <path d="M190.5,338.5C182.5,350.5 175.5,363.5 168.5,376.5L145.5,338.5L102.5,338.5C109.5,326.5 123.5,303.5 123.5,300.5C123.5,298.5 118.5,290.5 115.5,287.5C113.5,286.5 104.5,285.5 103.5,287.5C94.5,298.5 87.5,312.5 80.5,325.5C71.5,312.5 65.5,298.5 56.5,287.5L15.5,287.5L36.5,249.5L14.5,212.5L57.5,212.5C60.5,208.5 65.5,201.5 65.5,199.5C65.5,196.5 60.5,190.5 57.5,186.5L15.5,186.5L36.5,148.5L15.5,111.5L57.5,111.5L80.5,73.5C84.5,80.5 88.5,87.5 92.5,95.5C100.5,108.5 99.5,111.5 109.5,111.5C116.5,111.5 123.5,104.5 123.5,98.5C123.5,95.5 109.5,73.5 102.5,60.5L145.5,60.5C153.5,48.5 160.5,35.5 167.5,23.5C174.5,34.5 182.5,47.5 190.5,60.5L233.5,60.5C226.499,72.501 212.5,95.5 212.5,98.5C212.5,100.5 215.5,107.5 220.5,110.5C221.5,111.5 223.5,111.5 226.5,111.5C228.5,111.5 231.5,111.5 233.5,110.5C241.5,98.5 248.5,85.5 255.5,73.5C262.5,85.5 270.5,98.5 278.5,111.5L320.5,111.5L299.5,148.5L320.5,186.5L278.5,186.5C275.499,190.501 270.5,196.5 270.5,199.5C270.5,201.5 275.499,208.499 278.5,212.5L321.5,212.5L299.5,249.5L320.5,287.5L279.5,287.5C269.5,298.501 263.5,312.5 255.5,325.5C248.5,313.5 241.5,300.5 234.5,289.5C232.5,286.5 221.5,286.5 220.5,287.5C216.5,290.5 212.5,298.5 212.5,300.5C212.5,303.5 226.499,326.499 233.5,338.5L190.5,338.5ZM258.066,129.191C257.141,127.891 256.25,126.625 255.5,125.5C253.5,129.5 250.5,133.5 248.5,136.5L204.5,136.5C196.5,123.5 182.5,100.5 182.5,97.5C182.5,95.5 186.5,90.5 188.5,86.5C184.5,86.5 179.5,86.5 175.5,85.5C172.5,82.5 169.5,77.5 167.5,74.5C165.5,78.5 163.5,82.5 160.5,85.5C156.5,86.5 151.5,86.5 147.5,86.5C149.5,90.5 153.5,95.5 153.5,97.5C153.5,100.5 139.5,123.5 131.5,136.5L87.5,136.5C84.5,132.5 82.5,128.5 79.5,125.5C77.5,129.5 75.5,133.5 73.5,135.5C68.5,136.5 63.5,136.5 59.5,137.5C62.5,141.5 66.5,146.5 66.5,148.5C66.5,151.5 62.5,156.5 59.5,160.5C64.5,161.5 69.5,161.5 73.5,161.5C81.5,174.5 95.5,197.5 95.5,199.5C95.5,202.5 82.5,226.5 72.5,237.5C69.5,240.5 63.5,238.5 59.5,238.5C61.5,242.5 66.5,247.5 66.5,250.5C66.5,252.5 61.5,258.5 59.5,262.5C64.5,262.5 69.5,262.5 73.5,262.5C75.5,266.5 78.5,270.5 80.5,273.5C83.5,269.5 85.5,265.501 87.5,262.5L131.5,262.5L153.5,300.5C152.5,304.5 149.5,308.5 147.5,312.5C157.5,308.5 163.5,314.5 168.5,324.5C170.5,312.5 177.5,309.5 188.5,312.5C186.5,308.5 183.5,304.5 182.5,300.5L204.5,262.5L248.5,262.5C251.5,266.5 253.5,270.5 256.5,273.5C258.5,269.5 260.5,265.501 262.5,262.5L276.5,262.5C274.499,258.499 269.5,252.5 269.5,250.5C269.5,247.5 274.5,242.5 276.5,238.5C272.5,238.5 265.5,240.5 263.5,237.5C252.5,226.5 240.5,202.5 240.5,199.5C240.5,197.5 254.5,174.5 262.5,161.5C267.5,161.5 272.5,161.5 276.5,160.5C273.5,156.5 269.5,151.5 269.5,148.5C269.5,146.5 273.5,141.5 276.5,137.5C271.5,136.5 266.5,136.5 262.5,135.5C261.75,134.375 260.859,133.109 259.934,131.809L258.066,129.191Z" style="fill:rgb(180,64,127);fill-rule:nonzero;"/>
    </g>
</svg>
